# AST/ASF file generated using VICON BodyLanguage
# -----------------------------------------------
:version 1.10
:name VICON
:units
  mass 1.0
  length 0.1
  angle deg
:documentation
   .ast/.asf automatically generated from VICON data using
   VICON BodyBuilder and BodyLanguage model FULLBODY5.MOD
:root
   order TX TY TZ RZ RY RX
   axis XYZ
   position 0 0 0  
   orientation 0 -0 0 
:bonedata
  begin
     id 1 
     name lhipjoint
     direction 0.969109 -0.218487 0.11442 
     length 0.544217 
     axis 0 -0 0  XYZ
  end
  begin
     id 2 
     name lfemur
     direction 0.173648 -0.984808 0  
     length 1.81499  
     axis 0 -0 10  XYZ
    dof rx ry rz
    limits (-180.0 180.0)
           (-180.0 180.0)
           (-180.0 180.0)
  end
  begin
     id 3 
     name ltibia
     direction 0.173515 -0.984831 0   
     length 1.55296   
     axis 0 -0 10   XYZ
    dof rx ry rz
    limits (-180.0 180.0)
           (-180.0 180.0)
           (-180.0 180.0)
  end
  begin
     id 4 
     name lfoot
     direction 7.36097e-012 -0.333012 0.942922   
     length 0.509062   
     axis -90 -1.73656e-015 10   XYZ
    dof rx ry rz
    limits (-180.0 180.0)
           (-180.0 180.0)
           (-180.0 180.0)
  end
  begin
     id 5 
     name ltoes
     direction 7.7847e-012 -4.42403e-011 1   
     length 0.249732   
     axis -90 -1.73656e-015 10   XYZ
    dof rx ry rz
    limits (-180.0 180.0)
           (-180.0 180.0)
           (-180.0 180.0)
  end
  begin
     id 6 
     name rhipjoint
     direction -0.966745 -0.226554 0.118645   
     length 0.524838  
     axis 0 -0 0  XYZ 
  end
  begin
     id 7 
     name rfemur
     direction -0.173648 -0.984808 0   
     length 1.84625   
     axis 0 -0 -10   XYZ
    dof rx ry rz
    limits (-180.0 180.0)
           (-180.0 180.0)
           (-180.0 180.0)
  end
  begin
     id 8 
     name rtibia
     direction -0.173714 -0.984796 0   
     length 1.577   
     axis 0 -0 -10   XYZ
    dof rx ry rz
    limits (-180.0 180.0)
           (-180.0 180.0)
           (-180.0 180.0)
 end
 begin
     id 9 
     name rfoot
     direction -0.0183819 -0.0406144 0.999006   
     length 0.490111  
     axis -90 1.73656e-015 -10   XYZ
    dof rx ry rz
    limits (-180.0 180.0)
           (-180.0 180.0)
           (-180.0 180.0)
  end
  begin
     id 10 
     name rtoes
     direction -7.79087e-012 -4.42375e-011 1   
     length 0.245053   
     axis -90 1.73656e-015 -10   XYZ
    dof rx ry rz
    limits (-180.0 180.0)
           (-180.0 180.0)
           (-180.0 180.0)
  end
  begin
     id 11 
     name lowerback
     direction -0.0664844 0.980601 0.184393   
     length 0.458979   
     axis 0 -0 0   XYZ
    dof rx ry rz
    limits (-180.0 180.0)
           (-180.0 180.0)
           (-180.0 180.0)
  end
  begin
     id 12 
     name upperback
     direction 0.0135995 0.999573 0.02588   
     length 0.463983   
     axis 0 -0 0   XYZ
    dof rx ry rz
    limits (-180.0 180.0)
           (-180.0 180.0)
           (-180.0 180.0)
  end
  begin
     id 13 
     name thorax
     direction 0.0468402 0.997311 -0.0563691   
     length 0.482746   
     axis 0 -0 0   XYZ
    dof rx ry rz
    limits (-180.0 180.0)
           (-180.0 180.0)
           (-180.0 180.0)
  end
  begin
     id 14 
     name lowerneck
     direction -0.00174311 0.988586 -0.150647   
     length 0.364383   
     axis 0 -0 0   XYZ
    dof rx ry rz
    limits (-180.0 180.0)
           (-180.0 180.0)
           (-180.0 180.0)
  end
  begin
     id 15 
     name upperneck
     direction -0.02653 0.999379 -0.0231908   
     length 0.361006   
     axis 0 -0 0   XYZ
    dof rx ry rz
    limits (-180.0 180.0)
           (-180.0 180.0)
           (-180.0 180.0)
  end
  begin
     id 16
     name head
     direction -0.00819207 0.999941 0.00714285  
     length 0.378714  
     axis 0 -0 0   XYZ
    dof rx ry rz
    limits (-180.0 180.0)
           (-180.0 180.0)
           (-180.0 180.0)
  end
  begin
     id 17 
     name lshoulderjoint
     direction 0.981627 -0.190809 0  
     length 0.612969  
     axis 0 -0 -11   XYZ
    dof rx ry rz
    limits (-180.0 180.0)
           (-180.0 180.0)
           (-180.0 180.0)
  end
  begin
     id 18 
     name lhumerus
     direction 0.48481 -0.87462 -9.72962e-027   
     length 1.19637   
     axis -180 5.14477e-009 -151   XYZ
    dof rx ry rz
    limits (-180.0 180.0)
           (-180.0 180.0)
           (-180.0 180.0)
  end
  begin
     id 19
     name lradius
     direction 0.48481 -0.87462 -2.35761e-026   
     length 0.637735   
     axis -180 5.14477e-009 -151   XYZ
    dof rx ry rz
    limits (-180.0 180.0)
           (-180.0 180.0)
           (-180.0 180.0)
  end
  begin
     id 20
     name lwrist
     direction 0.48481 -0.87462 -5.51856e-026   
     length 0.318868   
     axis -180 5.14477e-009 -151   XYZ
    dof rx ry rz
    limits (-180.0 180.0)
           (-180.0 180.0)
           (-180.0 180.0)
  end
  begin
     id 21 
     name lhand
     direction 0.477747 -0.861928 -0.169816   
     length 0.29526   
     axis -180 5.14477e-009 -151   XYZ
    dof rx ry rz
    limits (-180.0 180.0)
           (-180.0 180.0)
           (-180.0 180.0)
  end
  begin
     id 22 
     name rshoulderjoint
     direction -0.981627 -0.190809 0   
     length 0.572347  
     axis 0 -0 11   XYZ 
    dof rx ry rz
    limits (-180.0 180.0)
           (-180.0 180.0)
           (-180.0 180.0)
  end
  begin
     id 23 
     name rhumerus
     direction -0.48481 -0.87462 1.64836e-026  
     length 1.28846   
     axis 180 5.14477e-009 151   XYZ
    dof rx ry rz
    limits (-180.0 180.0)
           (-180.0 180.0)
           (-180.0 180.0)
  end
  begin
     id 24 
     name rradius
     direction -0.48481 -0.87462 2.86827e-026   
     length 0.62107   
     axis 180 5.14477e-009 151   XYZ
    dof rx ry rz
    limits (-180.0 180.0)
           (-180.0 180.0)
           (-180.0 180.0)
  end
  begin
     id 25 
     name rwrist
     direction -0.48481 -0.87462 5.20942e-026   
     length 0.310535   
     axis 180 5.14477e-009 151   XYZ
    dof rx ry rz
    limits (-180.0 180.0)
           (-180.0 180.0)
           (-180.0 180.0)
  end
  begin
     id 26
     name rhand
     direction -0.477664 -0.861515 -0.172133   
     length 0.291321   
     axis 180 5.14477e-009 151   XYZ
    dof rx ry rz
    limits (-180.0 180.0)
           (-180.0 180.0)
           (-180.0 180.0)
  end
:hierarchy
  begin
    root lhipjoint rhipjoint lowerback 
    lhipjoint lfemur
    lfemur ltibia
    ltibia lfoot
    lfoot ltoes
    rhipjoint rfemur
    rfemur rtibia
    rtibia rfoot
    rfoot rtoes
    lowerback upperback
    upperback thorax
    thorax lowerneck lshoulderjoint rshoulderjoint
    lowerneck upperneck
    upperneck head
    lshoulderjoint lhumerus
    lhumerus lradius
    lradius lwrist
    lwrist lhand
    rshoulderjoint rhumerus
    rhumerus rradius
    rradius rwrist
    rwrist rhand
  end

:FULLY-SPECIFIED
:DEGREES
2717
root 9.48517 3.60854 -0.493915 461.645 -68.9426 101.682
lowerback -18.998 0.95162 -5.20753
upperback -5.32465 1.82683 1.2254
thorax 4.6513 0.744946 4.67245
lowerneck 12.4596 -2.01045 1.39562
upperneck 3.85907 -2.74716 -5.94141
head -1.01335 -1.33572 -2.00347
rshoulderjoint -2.23778 7.15618 -28.4156
rhumerus 347.794 -4.9073 -410.976
rradius 21.0278 -4.05521e-014 -1.27222e-014
rwrist -1.66826e-013 10.9319 4.29212e-014
rhand 11.7092 -9.50605 31.0508
lshoulderjoint -1.6283 -4.95182 29.2281
lhumerus 352.287 9.70923 415.385
lradius 15.8729 -4.53229e-014 -3.22031e-014
lwrist -1.53832e-013 -7.05677 -6.32954e-014
lhand 7.738 5.96671 -31.1431
rfemur -9.57562 20.7305 14.1387
rtibia 4.6118e-014 -1.11319e-014 -1.19271e-014
rfoot -173.586 -17.6781 159.873
rtoes 1.12115e-013 7.22582e-014 2.18663e-014
lfemur -43.8525 -5.07338 -11.0805
ltibia 60.45 -6.36111e-015 -4.77083e-015
lfoot -17.95 10.4858 8.95528
ltoes -1.08139e-013 4.09496e-014 2.42517e-014
2718
root 9.47137 3.60858 -0.49606 462.019 -68.8431 101.889
lowerback -18.8597 1.03034 -5.43854
upperback -5.31591 1.97284 1.17467
thorax 4.56299 0.82034 4.77674
lowerneck 12.342 -2.05318 1.32112
upperneck 3.92214 -2.80849 -5.86384
head -0.971505 -1.37084 -1.96199
rshoulderjoint -2.23815 7.09913 -28.549
rhumerus 347.758 -5.07306 -411.134
rradius 20.9785 3.57812e-014 8.26944e-014
rwrist -4.66521e-013 10.9679 2.25161e-013
rhand 11.8995 -9.54914 30.9791
lshoulderjoint -1.60645 -4.88725 29.2209
lhumerus 352.117 9.63645 415.418
lradius 16.0104 1.98785e-014 3.02153e-014
lwrist -5.0148e-013 -6.98623 -1.28174e-014
lhand 7.53417 6.11131 -31.0112
rfemur -9.43708 20.8246 14.0237
rtibia -1.27222e-014 1.59028e-015 0
rfoot -173.517 -17.6904 159.872
rtoes 1.4392e-013 -1.19768e-014 -4.29375e-014
lfemur -44.8288 -4.6427 -11.3367
ltibia 60.4542 0 3.18055e-015
lfoot -17.9732 10.4815 9.26512
ltoes -6.04305e-014 5.82439e-014 6.83819e-014
2719
root 9.45713 3.60866 -0.497957 462.437 -68.7636 102.077
lowerback -18.6854 1.12117 -5.68046
upperback -5.30636 2.13845 1.06097
thorax 4.45546 0.906334 4.82149
lowerneck 12.2972 -2.09145 1.27362
upperneck 3.87526 -2.86222 -5.74642
head -0.977197 -1.39845 -1.91254
rshoulderjoint -2.23762 7.07212 -28.6077
rhumerus 347.702 -5.4846 -411.265
rradius 20.9598 -6.04305e-014 -2.94201e-014
rwrist 1.57157e-013 11.0247 -4.13145e-014
rhand 12.1063 -9.55112 30.7856
lshoulderjoint -1.60337 -4.86491 29.266
lhumerus 351.954 9.96581 415.38
lradius 16.1801 -7.4743e-014 3.10104e-014
lwrist 1.45713e-013 -6.70949 1.24096e-013
lhand 7.59866 5.7309 -30.7106
rfemur -9.2738 20.9074 13.8563
rtibia 2.06736e-014 -6.36111e-015 -1.59028e-015
rfoot -173.438 -17.7019 159.86
rtoes -7.87187e-014 -4.42296e-014 -1.27222e-014
lfemur -45.7195 -4.30872 -11.6117
ltibia 60.1742 2.38542e-015 -1.59028e-015
lfoot -17.965 10.4017 9.56615
ltoes 6.04305e-014 -3.53837e-014 8.74653e-015
2720
root 9.44185 3.60842 -0.499779 462.854 -68.6947 102.217
lowerback -18.5181 1.20155 -5.94212
upperback -5.28408 2.29542 0.92617
thorax 4.36553 0.987446 4.85264
lowerneck 12.1823 -2.13469 1.21779
upperneck 3.87296 -2.92171 -5.63319
head -0.956425 -1.43081 -1.86316
rshoulderjoint -2.22861 7.01226 -28.6808
rhumerus 347.661 -5.82517 -411.448
rradius 21.0003 1.98785e-014 1.59028e-014
rwrist -2.28464e-013 11.0496 6.23821e-014
rhand 12.2227 -9.57997 30.5738
lshoulderjoint -1.60358 -4.85388 29.307
lhumerus 351.734 10.1882 415.308
lradius 16.3352 -3.57812e-014 1.21259e-013
lwrist -2.15359e-013 -6.68982 2.25766e-013
lhand 7.529 5.71847 -30.4314
rfemur -9.07465 20.9705 13.6513
rtibia -6.52014e-014 -4.6118e-014 -7.95139e-015
rfoot -173.515 -17.8866 159.967
rtoes 3.65764e-014 -4.17945e-014 -6.44062e-014
lfemur -46.5277 -4.07153 -11.8893
ltibia 59.6306 7.15625e-015 7.15625e-015
lfoot -17.9884 10.3743 9.78959
ltoes 2.22639e-014 -3.57812e-015 -2.62396e-014
2721
root 9.42641 3.60794 -0.501348 463.223 -68.6571 102.313
lowerback -18.2952 1.28445 -6.16252
upperback -5.25196 2.44658 0.767249
thorax 4.26028 1.06676 4.83029
lowerneck 12.0317 -2.18509 1.19158
upperneck 3.88658 -2.98611 -5.54202
head -0.925696 -1.46554 -1.8264
rshoulderjoint -2.23658 7.01692 -28.7291
rhumerus 347.627 -6.31355 -411.622
rradius 21.0506 4.37326e-014 1.11319e-013
rwrist 0 10.9922 1.782e-013
rhand 12.3922 -9.49767 30.2927
lshoulderjoint -1.60793 -4.84941 29.369
lhumerus 351.573 10.3465 415.236
lradius 16.4381 9.54166e-014 5.12864e-014
lwrist -8.00303e-015 -6.51238 4.00151e-014
lhand 7.5143 5.62309 -30.182
rfemur -8.85708 21.0094 13.4611
rtibia -1.59028e-014 2.8625e-014 -1.59028e-015
rfoot -173.38 -17.8736 159.87
rtoes -1.59028e-014 6.07784e-014 -2.8625e-014
lfemur -47.2683 -3.92103 -12.1178
ltibia 58.8375 -3.18055e-015 -4.77083e-015
lfoot -18.0288 10.271 9.97987
ltoes -1.11319e-014 1.98785e-015 6.91771e-014
2722
root 9.40982 3.60749 -0.502931 463.6 -68.6314 102.41
lowerback -18.1211 1.37233 -6.38625
upperback -5.18509 2.60957 0.603852
thorax 4.21624 1.14925 4.80967
lowerneck 11.9049 -2.22684 1.18461
upperneck 3.80083 -3.03859 -5.47295
head -0.931799 -1.49066 -1.80079
rshoulderjoint -2.23333 6.99315 -28.7611
rhumerus 347.641 -6.71716 -411.8
rradius 21.1302 -6.95746e-014 1.59028e-014
rwrist -9.24661e-013 10.8771 2.51002e-013
rhand 12.4727 -9.4007 30.0302
lshoulderjoint -1.62984 -4.90961 29.3901
lhumerus 351.455 10.5736 415.118
lradius 16.5048 -1.82882e-013 7.95139e-016
lwrist -8.13754e-013 -6.41666 1.52029e-014
lhand 7.54942 5.56649 -29.9524
rfemur -8.59694 21.0459 13.2773
rtibia -1.59028e-014 -3.81667e-014 1.59028e-015
rfoot -173.207 -17.8234 159.845
rtoes 8.0309e-014 -3.32964e-015 -4.37326e-014
lfemur -47.9106 -3.84571 -12.297
ltibia 57.7949 1.59028e-015 4.77083e-015
lfoot -17.9954 10.171 10.0412
ltoes 3.49861e-014 -1.63003e-014 -5.88403e-014
2723
root 9.39241 3.60646 -0.504372 463.876 -68.5939 102.463
lowerback -17.9113 1.46926 -6.49854
upperback -5.1603 2.75858 0.417682
thorax 4.11712 1.22713 4.69503
lowerneck 11.8178 -2.28969 1.2202
upperneck 3.71537 -3.11468 -5.42192
head -0.946731 -1.52655 -1.78732
rshoulderjoint -2.23576 7.01029 -28.7387
rhumerus 347.611 -7.09656 -411.989
rradius 21.1974 3.4191e-014 1.11319e-013
rwrist -4.51621e-013 10.7555 2.70325e-013
rhand 12.5147 -9.28869 29.7805
lshoulderjoint -1.64696 -4.93205 29.4918
lhumerus 351.272 10.8208 414.994
lradius 16.5591 9.54166e-015 1.06946e-013
lwrist -4.75235e-013 -6.35766 1.46411e-013
lhand 7.74966 5.51196 -29.6809
rfemur -8.33898 21.0711 13.1521
rtibia -1.11319e-014 2.22639e-014 7.95139e-015
rfoot -173.071 -17.8412 159.797
rtoes 9.78021e-014 1.64097e-013 -3.81667e-014
lfemur -48.5151 -3.85326 -12.3676
ltibia 56.5297 5.56597e-015 -6.36111e-015
lfoot -18.1696 10.3141 10.0937
ltoes -5.40694e-014 1.07145e-013 7.23576e-014
2724
root 9.37465 3.60535 -0.505691 464.19 -68.5243 102.453
lowerback -17.5667 1.59475 -6.54235
upperback -5.26451 2.92183 0.00728315
thorax 3.82367 1.31842 4.29426
lowerneck 11.8337 -2.35438 1.5824
upperneck 3.64872 -3.15016 -5.30595
head -0.977395 -1.53876 -1.81191
rshoulderjoint -2.18348 7.00694 -28.3564
rhumerus 347.488 -7.37637 -412.156
rradius 21.2669 6.08281e-014 -1.35174e-013
rwrist 5.06496e-013 10.6591 -3.82704e-013
rhand 12.5331 -9.16779 29.5125
lshoulderjoint -1.70431 -4.98813 29.8913
lhumerus 350.896 11.0127 414.808
lradius 16.6228 7.4743e-014 -3.26007e-014
lwrist 4.20781e-013 -6.29651 -6.47971e-014
lhand 8.06045 5.55046 -29.3689
rfemur -8.11829 21.0836 12.9177
rtibia 1.11319e-014 9.54166e-015 1.59028e-015
rfoot -172.899 -17.8363 159.687
rtoes -3.02153e-014 2.57426e-014 1.94809e-014
lfemur -49.0846 -3.91332 -12.4906
ltibia 55.0335 7.95139e-016 7.95139e-016
lfoot -18.2045 10.3242 10.1115
ltoes 8.90555e-014 -3.17062e-014 2.06736e-014
2725
root 9.35588 3.60384 -0.506727 464.433 -68.4447 102.459
lowerback -17.6208 1.63005 -6.83564
upperback -5.08331 3.04081 0.0198482
thorax 4.01378 1.36972 4.50437
lowerneck 11.6449 -2.39105 1.28001
upperneck 3.43817 -3.2372 -5.29136
head -1.00918 -1.58142 -1.75045
rshoulderjoint -2.22898 7.02264 -28.6592
rhumerus 347.717 -7.43297 -412.331
rradius 21.3343 3.97569e-014 1.03368e-014
rwrist 6.22201e-014 10.2574 -1.5353e-014
rhand 12.581 -8.8935 29.2199
lshoulderjoint -1.70636 -5.07433 29.6141
lhumerus 350.984 11.3522 414.692
lradius 16.6434 9.22361e-014 -2.66371e-014
lwrist 1.76273e-014 -7.07479 -9.53475e-014
lhand 8.08297 6.27718 -29.084
rfemur -7.8901 21.1037 12.766
rtibia -1.43125e-014 0 -4.77083e-015
rfoot -172.801 -17.9168 159.625
rtoes 8.98507e-014 1.16786e-014 -9.85972e-014
lfemur -49.6039 -3.98691 -12.5093
ltibia 53.3437 -6.36111e-015 -6.36111e-015
lfoot -18.1694 10.1602 10.1108
ltoes -2.22639e-014 8.05078e-015 -3.10104e-014
